<svg xmlns="http://www.w3.org/2000/svg" viewBox="0 0 800 600" width="800" height="600" role="img">
  <title>High speed spiral door</title>
  <desc>Rigid insulated panels are carried into a spiral track above the opening, so the leaf never rests on itself.</desc>

  <rect x="0" y="0" width="800" height="600" fill="#eceae5"/>
  <rect x="90" y="90" width="620" height="420" fill="#d9d5cd" stroke="#b9b3a8" stroke-width="2"/>
  <rect x="250" y="150" width="300" height="330" fill="#eceae5"/>
  <path d="M90 480 L710 480" stroke="#b9b3a8" stroke-width="3"/>
  <path d="M250 150 L250 480 M550 150 L550 480" stroke="#3d444d" stroke-width="6" stroke-linecap="square"/>

  <rect x="230" y="118" width="340" height="14" fill="#272c33"/>
  <path d="M403.4 209.7 L400.9 211.0 L398.2 211.9 L395.3 212.5 L392.2 212.7 L389.0 212.4 L385.7 211.7 L382.4 210.5 L379.3 208.8 L376.2 206.6 L373.5 204.0 L371.0 200.9 L368.9 197.4 L367.2 193.6 L366.0 189.4 L365.4 185.0 L365.3 180.4 L365.8 175.8 L367.0 171.1 L368.9 166.5 L371.3 162.1 L374.4 158.0 L378.1 154.1 L382.4 150.8 L387.1 147.9 L392.4 145.7 L397.9 144.0 L403.8 143.2 L409.8 143.0 L416.0 143.7 L422.1 145.1 L428.1 147.4 L433.8 150.5 L439.3 154.4 L444.2 159.0 L448.7 164.4 L452.4 170.3 L455.5 176.8 L457.7 183.8 L459.0 191.0 L459.4 198.6 L458.8 206.2 L457.2 213.8 L454.7 221.3 L451.1 228.5 L446.6 235.3 L441.2 241.6 L434.9 247.2 L427.9 252.0 L420.2 256.0 L411.9 259.0 L403.2 260.9 L394.2 261.8 L385.1 261.5 L375.9 260.0 L366.9 257.3 L358.1 253.4 L349.9 248.5 L342.2 242.4 L335.3 235.3 L329.2 227.3" fill="none" stroke="#c8892a" stroke-width="3"/>
  <rect x="381.4" y="203.7" width="44" height="12" rx="3" fill="#69707a" transform="rotate(170.2 403.4 209.7)"/>
  <rect x="361.5" y="204.9" width="44" height="12" rx="3" fill="#69707a" transform="rotate(218.2 383.5 210.9)"/>
  <rect x="344.9" y="186.2" width="44" height="12" rx="3" fill="#69707a" transform="rotate(266.2 366.9 192.2)"/>
  <rect x="349.5" y="156.2" width="44" height="12" rx="3" fill="#69707a" transform="rotate(314.2 371.5 162.2)"/>
  <rect x="379.8" y="137.6" width="44" height="12" rx="3" fill="#69707a" transform="rotate(362.2 401.8 143.6)"/>
  <rect x="418.7" y="150.1" width="44" height="12" rx="3" fill="#69707a" transform="rotate(410.2 440.7 156.1)"/>
  <rect x="437.0" y="192.5" width="44" height="12" rx="3" fill="#69707a" transform="rotate(458.2 459.0 198.5)"/>
  <rect x="414.8" y="239.0" width="44" height="12" rx="3" fill="#69707a" transform="rotate(506.2 436.8 245.0)"/>
  <rect x="360.1" y="254.6" width="44" height="12" rx="3" fill="#69707a" transform="rotate(554.2 382.1 260.6)"/>
  <rect x="254" y="330" width="292" height="26" rx="3" fill="#69707a" stroke="#272c33" stroke-width="2"/>
  <rect x="254" y="360" width="292" height="26" rx="3" fill="#69707a" stroke="#272c33" stroke-width="2"/>
  <rect x="254" y="390" width="292" height="26" rx="3" fill="#69707a" stroke="#272c33" stroke-width="2"/>
  <rect x="254" y="420" width="292" height="26" rx="3" fill="#69707a" stroke="#272c33" stroke-width="2"/>
  <rect x="254" y="450" width="292" height="26" rx="3" fill="#69707a" stroke="#272c33" stroke-width="2"/>
  <rect x="294" y="336" width="212" height="14" fill="#cfe0e6"/>
  <path d="M250 150 L250 480 M550 150 L550 480" stroke="#3d444d" stroke-width="6" stroke-linecap="square"/>
  <path d="M600 190 L640 190" stroke="#c8892a" stroke-width="2" fill="none" stroke-linecap="round"/>
  <text x="648" y="195" text-anchor="start" font-family="ui-monospace, SFMono-Regular, Menlo, monospace" font-size="15" letter-spacing="0.06em" fill="#3d444d">spiral track</text>
  <path d="M600 380 L640 380" stroke="#c8892a" stroke-width="2" fill="none" stroke-linecap="round"/>
  <text x="648" y="385" text-anchor="start" font-family="ui-monospace, SFMono-Regular, Menlo, monospace" font-size="15" letter-spacing="0.06em" fill="#3d444d">insulated</text>
  <text x="648" y="405" text-anchor="start" font-family="ui-monospace, SFMono-Regular, Menlo, monospace" font-size="15" letter-spacing="0.06em" fill="#3d444d">aluminium panels</text>
  <text x="90" y="552" text-anchor="start" font-family="ui-monospace, SFMono-Regular, Menlo, monospace" font-size="15" letter-spacing="0.06em" fill="#3d444d">HIGH SPEED SPIRAL DOOR</text>
  <text x="710" y="552" text-anchor="end" font-family="ui-monospace, SFMono-Regular, Menlo, monospace" font-size="15" letter-spacing="0.06em" fill="#3d444d">STANDARD AUTOMATION</text>
  <path d="M90 566 L710 566" stroke="#a9a396" stroke-width="1"/>
</svg>
